<mxfile host="app.diagrams.net" agent="Mozilla/5.0 (Windows NT 10.0; Win64; x64) AppleWebKit/537.36 (KHTML, like Gecko) Chrome/109.0.0.0 Safari/537.36" version="24.9.1">
  <diagram id="iAVw1BS-TepNrcdEw7MR" name="PÃ¡gina-1">
    <mxGraphModel dx="2419" dy="2161" grid="1" gridSize="10" guides="1" tooltips="1" connect="1" arrows="1" fold="1" page="1" pageScale="1" pageWidth="827" pageHeight="1169" math="0" shadow="0">
      <root>
        <mxCell id="0" />
        <mxCell id="1" parent="0" />
        <mxCell id="YF1ZqDDAbzUs63sc3VQb-2" value="Professor" style="swimlane;fontStyle=1;align=center;verticalAlign=top;childLayout=stackLayout;horizontal=1;startSize=26;horizontalStack=0;resizeParent=1;resizeParentMax=0;resizeLast=0;collapsible=1;marginBottom=0;whiteSpace=wrap;html=1;fillColor=#ffffff;" parent="1" vertex="1">
          <mxGeometry x="380" y="-180" width="472" height="124" as="geometry" />
        </mxCell>
        <mxCell id="YF1ZqDDAbzUs63sc3VQb-3" value="&lt;div style=&quot;line-height: 160%;&quot;&gt;+ titulacao: String&lt;/div&gt;&lt;div style=&quot;line-height: 160%;&quot;&gt;+ disciplinas: Disciplina&lt;br&gt;&lt;/div&gt;&lt;div style=&quot;line-height: 160%;&quot;&gt;+ turmas: Turma&lt;br&gt;&lt;/div&gt;" style="text;strokeColor=none;fillColor=none;align=left;verticalAlign=middle;spacingLeft=4;spacingRight=4;overflow=hidden;rotatable=0;points=[[0,0.5],[1,0.5]];portConstraint=eastwest;whiteSpace=wrap;html=1;" parent="YF1ZqDDAbzUs63sc3VQb-2" vertex="1">
          <mxGeometry y="26" width="472" height="64" as="geometry" />
        </mxCell>
        <mxCell id="YF1ZqDDAbzUs63sc3VQb-4" value="" style="line;strokeWidth=1;fillColor=none;align=left;verticalAlign=middle;spacingTop=-1;spacingLeft=3;spacingRight=3;rotatable=0;labelPosition=right;points=[];portConstraint=eastwest;strokeColor=inherit;" parent="YF1ZqDDAbzUs63sc3VQb-2" vertex="1">
          <mxGeometry y="90" width="472" height="8" as="geometry" />
        </mxCell>
        <mxCell id="YF1ZqDDAbzUs63sc3VQb-5" value="+ void adicionarDisciplina(Disciplina d)" style="text;strokeColor=none;fillColor=none;align=left;verticalAlign=top;spacingLeft=4;spacingRight=4;overflow=hidden;rotatable=0;points=[[0,0.5],[1,0.5]];portConstraint=eastwest;whiteSpace=wrap;html=1;" parent="YF1ZqDDAbzUs63sc3VQb-2" vertex="1">
          <mxGeometry y="98" width="472" height="26" as="geometry" />
        </mxCell>
        <mxCell id="sDDxGcO6GiRr_8JJlsQ9-2" style="edgeStyle=orthogonalEdgeStyle;rounded=0;orthogonalLoop=1;jettySize=auto;html=1;exitX=0.5;exitY=0;exitDx=0;exitDy=0;entryX=0.508;entryY=1;entryDx=0;entryDy=0;entryPerimeter=0;" edge="1" parent="1" source="YF1ZqDDAbzUs63sc3VQb-6" target="YF1ZqDDAbzUs63sc3VQb-83">
          <mxGeometry relative="1" as="geometry">
            <mxPoint x="1150" y="-30" as="targetPoint" />
          </mxGeometry>
        </mxCell>
        <mxCell id="YF1ZqDDAbzUs63sc3VQb-6" value="&lt;b&gt;Usuario&lt;/b&gt;" style="swimlane;fontStyle=0;childLayout=stackLayout;horizontal=1;startSize=26;fillColor=#FBF7FF;horizontalStack=0;resizeParent=1;resizeParentMax=0;resizeLast=0;collapsible=1;marginBottom=0;whiteSpace=wrap;html=1;" parent="1" vertex="1">
          <mxGeometry x="620" y="110" width="470" height="78" as="geometry" />
        </mxCell>
        <mxCell id="YF1ZqDDAbzUs63sc3VQb-7" value="+ nome: String" style="text;strokeColor=none;fillColor=none;align=left;verticalAlign=top;spacingLeft=4;spacingRight=4;overflow=hidden;rotatable=0;points=[[0,0.5],[1,0.5]];portConstraint=eastwest;whiteSpace=wrap;html=1;" parent="YF1ZqDDAbzUs63sc3VQb-6" vertex="1">
          <mxGeometry y="26" width="470" height="26" as="geometry" />
        </mxCell>
        <mxCell id="YF1ZqDDAbzUs63sc3VQb-8" value="+ ID: String" style="text;strokeColor=none;fillColor=none;align=left;verticalAlign=top;spacingLeft=4;spacingRight=4;overflow=hidden;rotatable=0;points=[[0,0.5],[1,0.5]];portConstraint=eastwest;whiteSpace=wrap;html=1;" parent="YF1ZqDDAbzUs63sc3VQb-6" vertex="1">
          <mxGeometry y="52" width="470" height="26" as="geometry" />
        </mxCell>
        <mxCell id="YF1ZqDDAbzUs63sc3VQb-9" value="Notas&lt;div&gt;&lt;br&gt;&lt;/div&gt;" style="swimlane;fontStyle=1;align=center;verticalAlign=top;childLayout=stackLayout;horizontal=1;startSize=26;horizontalStack=0;resizeParent=1;resizeParentMax=0;resizeLast=0;collapsible=1;marginBottom=0;whiteSpace=wrap;html=1;fillColor=default;" parent="1" vertex="1">
          <mxGeometry x="110" y="545" width="466" height="590" as="geometry" />
        </mxCell>
        <mxCell id="YF1ZqDDAbzUs63sc3VQb-10" value="- Disciplinas : ArrayList&amp;lt;Disciplinas&amp;gt;;" style="text;strokeColor=none;fillColor=none;align=left;verticalAlign=top;spacingLeft=4;spacingRight=4;overflow=hidden;rotatable=0;points=[[0,0.5],[1,0.5]];portConstraint=eastwest;whiteSpace=wrap;html=1;" parent="YF1ZqDDAbzUs63sc3VQb-9" vertex="1">
          <mxGeometry y="26" width="466" height="26" as="geometry" />
        </mxCell>
        <mxCell id="YF1ZqDDAbzUs63sc3VQb-11" value="" style="line;strokeWidth=1;fillColor=none;align=left;verticalAlign=middle;spacingTop=-1;spacingLeft=3;spacingRight=3;rotatable=0;labelPosition=right;points=[];portConstraint=eastwest;strokeColor=inherit;" parent="YF1ZqDDAbzUs63sc3VQb-9" vertex="1">
          <mxGeometry y="52" width="466" height="8" as="geometry" />
        </mxCell>
        <mxCell id="YF1ZqDDAbzUs63sc3VQb-12" value="&lt;div&gt;&lt;div&gt;- AdicionarProvaDisciplina (NomeDisciplina: String, NomeProfessor: String, NomeTurma: String, NomeProva: String, Peso: Float) : Void;&lt;/div&gt;&lt;div&gt;&lt;br&gt;&lt;/div&gt;&lt;div&gt;- AdicionarTrabalhoDisciplina (NomeDisciplina: String,&amp;nbsp;&lt;span style=&quot;background-color: initial;&quot;&gt;NomeProfessor: String, NomeTurma: String,&amp;nbsp;&lt;/span&gt;&lt;span style=&quot;background-color: initial;&quot;&gt;NomeTrabalho: String, Peso: Float) : Void;&lt;/span&gt;&lt;/div&gt;&lt;div&gt;&lt;span style=&quot;background-color: initial;&quot;&gt;&lt;br&gt;&lt;/span&gt;&lt;/div&gt;&lt;div&gt;- AdicionarPontoExtraDisciplina (NomeDisciplina: String,&amp;nbsp;&lt;span style=&quot;background-color: initial;&quot;&gt;NomeProfessor: String, NomeTurma: String,&amp;nbsp;&lt;/span&gt;&lt;span style=&quot;background-color: initial;&quot;&gt;NomePontoExtra: String, ValorMaximo: Float) : Void;&lt;/span&gt;&lt;/div&gt;&lt;div&gt;&lt;span style=&quot;background-color: initial;&quot;&gt;&lt;br&gt;&lt;/span&gt;&lt;/div&gt;&lt;div&gt;&lt;span style=&quot;background-color: initial;&quot;&gt;- RemoverProvaDisciplina&amp;nbsp;&lt;/span&gt;&lt;span style=&quot;background-color: initial;&quot;&gt;(NomeDisciplina: String, NomeProfessor: String, NomeTurma: String, NomeProva: String, Peso: Float) : Void;&lt;/span&gt;&lt;/div&gt;&lt;div&gt;&lt;span style=&quot;background-color: initial;&quot;&gt;&lt;br&gt;&lt;/span&gt;&lt;/div&gt;&lt;div&gt;&lt;span style=&quot;background-color: initial;&quot;&gt;-RemoverTrabalhoDisciplina&amp;nbsp;&lt;/span&gt;&lt;span style=&quot;background-color: initial;&quot;&gt;(NomeDisciplina: String,&amp;nbsp;&lt;/span&gt;&lt;span style=&quot;background-color: initial;&quot;&gt;NomeProfessor: String, NomeTurma: String,&amp;nbsp;&lt;/span&gt;&lt;span style=&quot;background-color: initial;&quot;&gt;NomeTrabalho: String, Peso: Float) : Void;&lt;/span&gt;&lt;/div&gt;&lt;div&gt;&lt;span style=&quot;background-color: initial;&quot;&gt;&lt;br&gt;&lt;/span&gt;&lt;/div&gt;&lt;div&gt;&lt;span style=&quot;background-color: initial;&quot;&gt;-RemoverPontoExtraDisciplina&amp;nbsp;&lt;/span&gt;&lt;span style=&quot;background-color: initial;&quot;&gt;(NomeDisciplina: String,&amp;nbsp;&lt;/span&gt;&lt;span style=&quot;background-color: initial;&quot;&gt;NomeProfessor: String, NomeTurma: String,&amp;nbsp;&lt;/span&gt;&lt;span style=&quot;background-color: initial;&quot;&gt;NomePontoExtra: String, ValorMaximo: Float) : Void;&lt;/span&gt;&lt;/div&gt;&lt;div&gt;&lt;br&gt;&lt;/div&gt;&lt;div&gt;- AdicionarNotaProva (&lt;span style=&quot;background-color: initial;&quot;&gt;NomeDisciplina: String,&amp;nbsp;&lt;/span&gt;&lt;span style=&quot;background-color: initial;&quot;&gt;NomeProfessor: String, NomeTurma: String,&amp;nbsp;&lt;/span&gt;&lt;span style=&quot;background-color: initial;&quot;&gt;NomeAluno: String, NomeProva: String, Nota: Float) : Void;&lt;/span&gt;&lt;/div&gt;&lt;div&gt;&lt;br&gt;&lt;/div&gt;&lt;div&gt;- AdicionarNotaTrabalho (&lt;span style=&quot;background-color: initial;&quot;&gt;NomeDisciplina: String,&amp;nbsp;&lt;/span&gt;&lt;span style=&quot;background-color: initial;&quot;&gt;NomeProfessor: String, NomeTurma: String,&amp;nbsp;&lt;/span&gt;&lt;span style=&quot;background-color: initial;&quot;&gt;NomeAluno: String, NomeTrabalho: String, Nota: Float) : Void;&lt;/span&gt;&lt;/div&gt;&lt;div&gt;&lt;span style=&quot;background-color: initial;&quot;&gt;&lt;br&gt;&lt;/span&gt;&lt;/div&gt;&lt;div&gt;&lt;span style=&quot;background-color: initial;&quot;&gt;- AdicionarNotaPontoExtra (&lt;/span&gt;&lt;span style=&quot;background-color: initial;&quot;&gt;NomeDisciplina: String,&amp;nbsp;&lt;/span&gt;&lt;span style=&quot;background-color: initial;&quot;&gt;NomeProfessor: String, NomeTurma: String,&amp;nbsp;&lt;/span&gt;&lt;span style=&quot;background-color: initial;&quot;&gt;NomeAluno: String, NomePontoExtra: String, Nota: Float) : Void;&lt;/span&gt;&lt;/div&gt;&lt;div&gt;&lt;span style=&quot;background-color: initial;&quot;&gt;&lt;br&gt;&lt;/span&gt;&lt;/div&gt;&lt;div&gt;&lt;span style=&quot;background-color: initial;&quot;&gt;- RemoverNotaProva&amp;nbsp;&lt;/span&gt;&lt;span style=&quot;background-color: initial;&quot;&gt;&amp;nbsp;&lt;/span&gt;&lt;span style=&quot;background-color: initial;&quot;&gt;(&lt;/span&gt;&lt;span style=&quot;background-color: initial;&quot;&gt;NomeDisciplina: String,&amp;nbsp;&lt;/span&gt;&lt;span style=&quot;background-color: initial;&quot;&gt;NomeProfessor: String, NomeTurma: String,&amp;nbsp;&lt;/span&gt;&lt;span style=&quot;background-color: initial;&quot;&gt;NomeAluno: String, NomeProva: String, Nota: Float) : Void;&lt;/span&gt;&lt;/div&gt;&lt;div&gt;&lt;span style=&quot;background-color: initial;&quot;&gt;&lt;br&gt;&lt;/span&gt;&lt;/div&gt;&lt;div&gt;&lt;span style=&quot;background-color: initial;&quot;&gt;- RemoverNotaTrabalho&amp;nbsp;&lt;/span&gt;&lt;span style=&quot;background-color: initial;&quot;&gt;(&lt;/span&gt;&lt;span style=&quot;background-color: initial;&quot;&gt;NomeDisciplina: String,&amp;nbsp;&lt;/span&gt;&lt;span style=&quot;background-color: initial;&quot;&gt;NomeProfessor: String, NomeTurma: String,&amp;nbsp;&lt;/span&gt;&lt;span style=&quot;background-color: initial;&quot;&gt;NomeAluno: String, NomeTrabalho: String, Nota: Float) : Void;&lt;/span&gt;&lt;/div&gt;&lt;div&gt;&lt;span style=&quot;background-color: initial;&quot;&gt;&lt;br&gt;&lt;/span&gt;&lt;/div&gt;&lt;div&gt;&lt;span style=&quot;background-color: initial;&quot;&gt;- RemoverNotaPontoExtra&amp;nbsp;&lt;/span&gt;&lt;span style=&quot;background-color: initial;&quot;&gt;(&lt;/span&gt;&lt;span style=&quot;background-color: initial;&quot;&gt;NomeDisciplina: String,&amp;nbsp;&lt;/span&gt;&lt;span style=&quot;background-color: initial;&quot;&gt;NomeProfessor: String, NomeTurma: String,&amp;nbsp;&lt;/span&gt;&lt;span style=&quot;background-color: initial;&quot;&gt;NomeAluno: String, NomePontoExtra: String, Nota: Float) : Void;&lt;/span&gt;&lt;/div&gt;&lt;div&gt;&lt;span style=&quot;background-color: initial;&quot;&gt;&lt;br&gt;&lt;/span&gt;&lt;/div&gt;&lt;div&gt;&lt;br&gt;&lt;/div&gt;&lt;/div&gt;" style="text;strokeColor=none;fillColor=none;align=left;verticalAlign=top;spacingLeft=4;spacingRight=4;overflow=hidden;rotatable=0;points=[[0,0.5],[1,0.5]];portConstraint=eastwest;whiteSpace=wrap;html=1;" parent="YF1ZqDDAbzUs63sc3VQb-9" vertex="1">
          <mxGeometry y="60" width="466" height="530" as="geometry" />
        </mxCell>
        <mxCell id="YF1ZqDDAbzUs63sc3VQb-14" value="&lt;b&gt;Disciplina&lt;/b&gt;" style="swimlane;fontStyle=0;childLayout=stackLayout;horizontal=1;startSize=26;fillColor=default;horizontalStack=0;resizeParent=1;resizeParentMax=0;resizeLast=0;collapsible=1;marginBottom=0;whiteSpace=wrap;html=1;" parent="1" vertex="1">
          <mxGeometry x="110" y="380" width="469" height="130" as="geometry">
            <mxRectangle x="344" y="40" width="90" height="30" as="alternateBounds" />
          </mxGeometry>
        </mxCell>
        <mxCell id="YF1ZqDDAbzUs63sc3VQb-15" value="- Alunos: ArrayList&amp;lt;Alunos&amp;gt;;&lt;div&gt;- Professor : Professor;&lt;/div&gt;&lt;div&gt;- Turma : Turma;&lt;/div&gt;&lt;div&gt;- Provas : ArrayList&amp;lt;Provas&amp;gt;;&lt;/div&gt;&lt;div&gt;- Trabalhos: ArrayList&amp;lt;Trabalhos&amp;gt;;&lt;/div&gt;&lt;div&gt;- PontosExtra : ArrayList&amp;lt;PontosExtra&amp;gt;;&lt;/div&gt;" style="text;strokeColor=none;fillColor=none;align=left;verticalAlign=top;spacingLeft=4;spacingRight=4;overflow=hidden;rotatable=0;points=[[0,0.5],[1,0.5]];portConstraint=eastwest;whiteSpace=wrap;html=1;" parent="YF1ZqDDAbzUs63sc3VQb-14" vertex="1">
          <mxGeometry y="26" width="469" height="104" as="geometry" />
        </mxCell>
        <mxCell id="YF1ZqDDAbzUs63sc3VQb-18" value="&lt;b&gt;Trabalho&lt;/b&gt;" style="swimlane;fontStyle=0;childLayout=stackLayout;horizontal=1;startSize=26;fillColor=default;horizontalStack=0;resizeParent=1;resizeParentMax=0;resizeLast=0;collapsible=1;marginBottom=0;whiteSpace=wrap;html=1;" parent="1" vertex="1">
          <mxGeometry x="-140" y="100" width="469" height="60" as="geometry" />
        </mxCell>
        <mxCell id="YF1ZqDDAbzUs63sc3VQb-25" value="- NomeTrabalho : String;&lt;div&gt;- Peso : Float;&lt;/div&gt;&lt;div&gt;&lt;br&gt;&lt;/div&gt;" style="text;strokeColor=none;fillColor=none;align=left;verticalAlign=top;spacingLeft=4;spacingRight=4;overflow=hidden;rotatable=0;points=[[0,0.5],[1,0.5]];portConstraint=eastwest;whiteSpace=wrap;html=1;" parent="YF1ZqDDAbzUs63sc3VQb-18" vertex="1">
          <mxGeometry y="26" width="469" height="34" as="geometry" />
        </mxCell>
        <mxCell id="YF1ZqDDAbzUs63sc3VQb-19" value="&lt;b&gt;PontoExtra&lt;/b&gt;" style="swimlane;fontStyle=0;childLayout=stackLayout;horizontal=1;startSize=26;fillColor=default;horizontalStack=0;resizeParent=1;resizeParentMax=0;resizeLast=0;collapsible=1;marginBottom=0;whiteSpace=wrap;html=1;" parent="1" vertex="1">
          <mxGeometry x="590" y="260" width="472" height="60" as="geometry" />
        </mxCell>
        <mxCell id="YF1ZqDDAbzUs63sc3VQb-21" value="- NomePontoExtra : String;&lt;div&gt;- ValorMaximo : Float;&lt;/div&gt;" style="text;strokeColor=none;fillColor=none;align=left;verticalAlign=top;spacingLeft=4;spacingRight=4;overflow=hidden;rotatable=0;points=[[0,0.5],[1,0.5]];portConstraint=eastwest;whiteSpace=wrap;html=1;" parent="YF1ZqDDAbzUs63sc3VQb-19" vertex="1">
          <mxGeometry y="26" width="472" height="34" as="geometry" />
        </mxCell>
        <mxCell id="YF1ZqDDAbzUs63sc3VQb-30" value="Periodo" style="swimlane;fontStyle=1;align=center;verticalAlign=top;childLayout=stackLayout;horizontal=1;startSize=26;horizontalStack=0;resizeParent=1;resizeLast=0;collapsible=1;marginBottom=0;rounded=0;shadow=0;strokeWidth=1;fillColor=default;" parent="1" vertex="1">
          <mxGeometry x="1270" y="750" width="469" height="318" as="geometry">
            <mxRectangle x="230" y="140" width="160" height="26" as="alternateBounds" />
          </mxGeometry>
        </mxCell>
        <mxCell id="YF1ZqDDAbzUs63sc3VQb-32" value="" style="line;html=1;strokeWidth=1;align=left;verticalAlign=middle;spacingTop=-1;spacingLeft=3;spacingRight=3;rotatable=0;labelPosition=right;points=[];portConstraint=eastwest;" parent="YF1ZqDDAbzUs63sc3VQb-30" vertex="1">
          <mxGeometry y="26" width="469" height="8" as="geometry" />
        </mxCell>
        <mxCell id="YF1ZqDDAbzUs63sc3VQb-31" value="horaInicio : LocalTime;&#xa;&#xa;horaFim : LocalTime;&#xa;&#xa;disciplina : Disciplina;&#xa;" style="text;align=left;verticalAlign=middle;spacingLeft=4;spacingRight=4;overflow=hidden;rotatable=0;points=[[0,0.5],[1,0.5]];portConstraint=eastwest;" parent="YF1ZqDDAbzUs63sc3VQb-30" vertex="1">
          <mxGeometry y="34" width="469" height="84" as="geometry" />
        </mxCell>
        <mxCell id="YF1ZqDDAbzUs63sc3VQb-33" value="Disciplina getDisciplina() : Disciplina;&#xa;&#xa;LocalTime getHoraInicio() : LocalTime;&#xa;&#xa;void setHoraInicio(LocalTime horaInicio) : void;&#xa;&#xa;LocalTime getHoraFim() : LocalTime;&#xa;&#xa;void setHoraFim(LocalTime horaFim) : void;&#xa;&#xa;void setDisciplina(Disciplina disciplina) : void;&#xa;&#xa;String toString() ;&#xa;" style="text;align=left;verticalAlign=middle;spacingLeft=4;spacingRight=4;overflow=hidden;rotatable=0;points=[[0,0.5],[1,0.5]];portConstraint=eastwest;" parent="YF1ZqDDAbzUs63sc3VQb-30" vertex="1">
          <mxGeometry y="118" width="469" height="200" as="geometry" />
        </mxCell>
        <mxCell id="YF1ZqDDAbzUs63sc3VQb-34" value="Horario" style="swimlane;fontStyle=1;align=center;verticalAlign=middle;childLayout=stackLayout;horizontal=1;startSize=26;horizontalStack=0;resizeParent=1;resizeLast=0;collapsible=1;marginBottom=0;rounded=0;shadow=0;strokeWidth=1;fillColor=default;" parent="1" vertex="1">
          <mxGeometry x="710" y="660" width="469" height="810" as="geometry">
            <mxRectangle x="550" y="140" width="160" height="26" as="alternateBounds" />
          </mxGeometry>
        </mxCell>
        <mxCell id="YF1ZqDDAbzUs63sc3VQb-35" value="DURACAO_AULA_MINUTOS : integer;&#xa;&#xa;DURACAO_INTERVALO_MINUTOS : integer;&#xa;&#xa;HORA_INICIO : LocalTime;&#xa;&#xa;HORA_FINAL : LocalTime;&#xa;&#xa;HORA_ALMOCO_INICIO : LocalTime;&#xa;&#xa;HORA_ALMOCO_FINAL : LocalTime;&#xa;&#xa;contadorGeralDeAulas : integer;&#xa;&#xa;periodos : ArrayList&lt;Periodo&gt;;&#xa;&#xa;intervalo : boolean;&#xa;&#xa;horario : Map&lt;String, List&lt;Periodo&gt;&gt;;&#xa;&#xa;diasDaSemana : String[] = {&quot;Segunda-feira&quot;, &quot;TerÃ§a-feira&quot;,Â &#xa;&quot;Quarta-feira&quot;, &quot;Quinta-feira&quot;, &quot;Sexta-feira&quot;};" style="text;align=left;verticalAlign=top;spacingLeft=4;spacingRight=4;overflow=hidden;rotatable=0;points=[[0,0.5],[1,0.5]];portConstraint=eastwest;" parent="YF1ZqDDAbzUs63sc3VQb-34" vertex="1">
          <mxGeometry y="26" width="469" height="324" as="geometry" />
        </mxCell>
        <mxCell id="YF1ZqDDAbzUs63sc3VQb-36" value="" style="line;html=1;strokeWidth=1;align=left;verticalAlign=middle;spacingTop=-1;spacingLeft=3;spacingRight=3;rotatable=0;labelPosition=right;points=[];portConstraint=eastwest;" parent="YF1ZqDDAbzUs63sc3VQb-34" vertex="1">
          <mxGeometry y="350" width="469" height="8" as="geometry" />
        </mxCell>
        <mxCell id="YF1ZqDDAbzUs63sc3VQb-37" value="getDURACAO_AULA_MINUTOS() : int;&#xa;&#xa;getDURACAO_INTERVALO_MINUTOS() : int;&#xa;&#xa;getHORA_INICIO() : LocalTime;&#xa;&#xa;getHORA_FINAL() : LocalTime;&#xa;&#xa;getHORA_ALMOCO_INICIO() : LocalTime;&#xa;&#xa;getHORA_ALMOCO_FINAL() : LocalTime;&#xa;&#xa;getContadorGeralDeAulas() : int;&#xa;&#xa;inicializarHorario() : void;&#xa;&#xa;gerarPeriodosAula() : List&lt;Periodo&gt;;&#xa;&#xa;exibirHorario() : void;&#xa;&#xa;adicionarDisciplina(String dia, ArrayList&lt;Disciplina&gt; disciplinas) : boolean;&#xa;&#xa;adicionarDisciplina(Disciplina disciplina, Periodo periodo) : boolean;&#xa;&#xa;adicionarDisciplina(String dia, Disciplina disciplina, LocalTime inicio) : boolean;&#xa;&#xa;adicionarDisciplina(String dia, ArrayList&lt;Disciplina&gt; disciplinas, int posicao) : boolean;&#xa;&#xa;removerTodasDisciplinas(String dia) : boolean;&#xa;&#xa;removerDisciplinaDia(String dia, LocalTime inicio) : boolean;&#xa;&#xa;&#xa;&#xa;&#xa;&#xa;&#xa;" style="text;align=left;verticalAlign=top;spacingLeft=4;spacingRight=4;overflow=hidden;rotatable=0;points=[[0,0.5],[1,0.5]];portConstraint=eastwest;" parent="YF1ZqDDAbzUs63sc3VQb-34" vertex="1">
          <mxGeometry y="358" width="469" height="452" as="geometry" />
        </mxCell>
        <mxCell id="YF1ZqDDAbzUs63sc3VQb-38" value="Disciplina" style="swimlane;fontStyle=1;align=center;verticalAlign=top;childLayout=stackLayout;horizontal=1;startSize=26;horizontalStack=0;resizeParent=1;resizeLast=0;collapsible=1;marginBottom=0;rounded=0;shadow=0;strokeWidth=1;fillColor=default;strokeColor=#82b366;" parent="1" vertex="1">
          <mxGeometry x="-390" y="545" width="460" height="480" as="geometry">
            <mxRectangle x="230" y="140" width="160" height="26" as="alternateBounds" />
          </mxGeometry>
        </mxCell>
        <mxCell id="YF1ZqDDAbzUs63sc3VQb-39" value="private String nome;&#xa;private String unidadeEscolar;&#xa;private String anoEscolar;&#xa;private String ementa;&#xa;private String objetivos;&#xa;private String metodologia;&#xa;private String calculoMedia;&#xa;private int cargaHoraria;&#xa;private ArrayList&lt;Notas&gt; notas;&#xa;private ArrayList&lt;Turma&gt; turmas;&#xa;private ArrayList&lt;Professor&gt; professores;&#xa;private ArrayList&lt;Prova&gt; provas;&#xa;private ArrayList&lt;Trabalho&gt; trabalhos;&#xa;private ArrayList&lt;PontoExtra&gt; pontosExtra;" style="text;align=left;verticalAlign=middle;spacingLeft=4;spacingRight=4;overflow=hidden;rotatable=0;points=[[0,0.5],[1,0.5]];portConstraint=eastwest;" parent="YF1ZqDDAbzUs63sc3VQb-38" vertex="1">
          <mxGeometry y="26" width="460" height="204" as="geometry" />
        </mxCell>
        <mxCell id="YF1ZqDDAbzUs63sc3VQb-40" value="" style="line;html=1;strokeWidth=1;align=left;verticalAlign=middle;spacingTop=-1;spacingLeft=3;spacingRight=3;rotatable=0;labelPosition=right;points=[];portConstraint=eastwest;" parent="YF1ZqDDAbzUs63sc3VQb-38" vertex="1">
          <mxGeometry y="230" width="460" height="8" as="geometry" />
        </mxCell>
        <mxCell id="YF1ZqDDAbzUs63sc3VQb-41" value="public Disciplina(String nome, String unidadeEscolar, String anoEscolar)&#xa;public void exibirPlanoDeEnsino()&#xa;public void adicionarNota(Aluno aluno)&#xa;public void removerNota(Aluno aluno)&#xa;public void adicionarTurma(Turma turma)&#xa;public void removerTurma(Turma turma)&#xa;public double mediaTurma(Turma turma)&#xa;public double mediaGeral()&#xa;public void adicionarProfessor(Professor professor)&#xa;public void removerProfessor(Professor professor)&#xa;public void adicionarProva(Prova prova)&#xa;public void removerProva(Prova prova)&#xa;public void adicionarTrabalho(Trabalho trabalho)&#xa;public void removerTrabalho(Trabalho trabalho)&#xa;public void adicionarPontoExtra(PontoExtra pontoExtra)&#xa;public void removerPontoExtra(PontoExtra pontoExtra)" style="text;align=left;verticalAlign=top;spacingLeft=4;spacingRight=4;overflow=hidden;rotatable=0;points=[[0,0.5],[1,0.5]];portConstraint=eastwest;spacing=2;" parent="YF1ZqDDAbzUs63sc3VQb-38" vertex="1">
          <mxGeometry y="238" width="460" height="242" as="geometry" />
        </mxCell>
        <mxCell id="sDDxGcO6GiRr_8JJlsQ9-4" style="edgeStyle=orthogonalEdgeStyle;rounded=0;orthogonalLoop=1;jettySize=auto;html=1;exitX=0.5;exitY=0;exitDx=0;exitDy=0;entryX=0.5;entryY=1;entryDx=0;entryDy=0;" edge="1" parent="1" source="YF1ZqDDAbzUs63sc3VQb-46" target="YF1ZqDDAbzUs63sc3VQb-48">
          <mxGeometry relative="1" as="geometry" />
        </mxCell>
        <mxCell id="sDDxGcO6GiRr_8JJlsQ9-5" style="edgeStyle=orthogonalEdgeStyle;rounded=0;orthogonalLoop=1;jettySize=auto;html=1;exitX=0.5;exitY=0;exitDx=0;exitDy=0;entryX=0.5;entryY=1;entryDx=0;entryDy=0;" edge="1" parent="1" source="YF1ZqDDAbzUs63sc3VQb-46" target="YF1ZqDDAbzUs63sc3VQb-49">
          <mxGeometry relative="1" as="geometry" />
        </mxCell>
        <mxCell id="YF1ZqDDAbzUs63sc3VQb-46" value="&lt;p style=&quot;margin:0px;margin-top:4px;text-align:center;&quot;&gt;&lt;b&gt;AtividadeExtra&lt;/b&gt;&lt;br&gt;&lt;/p&gt;&lt;hr size=&quot;1&quot; style=&quot;border-style:solid;&quot;&gt;&lt;p style=&quot;margin:0px;margin-left:4px;&quot;&gt;+ horasTotais: double&lt;/p&gt;&lt;p style=&quot;margin:0px;margin-left:4px;&quot;&gt;&lt;br&gt;&lt;/p&gt;&lt;p style=&quot;margin:0px;margin-left:4px;&quot;&gt;+ titulo: String&lt;br&gt;&lt;/p&gt;&lt;hr size=&quot;1&quot; style=&quot;border-style:solid;&quot;&gt;&lt;p style=&quot;margin:0px;margin-left:4px;&quot;&gt;+ getHorasTotais(): String&lt;/p&gt;&lt;p style=&quot;margin:0px;margin-left:4px;&quot;&gt;&lt;br&gt;&lt;/p&gt;&lt;p style=&quot;margin:0px;margin-left:4px;&quot;&gt;+ getTitulo(): String&lt;/p&gt;&lt;p style=&quot;margin:0px;margin-left:4px;&quot;&gt;&lt;br&gt;&lt;/p&gt;&lt;p style=&quot;margin:0px;margin-left:4px;&quot;&gt;+ setHorasTotais(double horasTotais): void&lt;/p&gt;&lt;p style=&quot;margin:0px;margin-left:4px;&quot;&gt;&lt;br&gt;&lt;/p&gt;&lt;p style=&quot;margin:0px;margin-left:4px;&quot;&gt;+ setTitulo(double titulo): void&lt;br&gt;&lt;/p&gt;" style="verticalAlign=middle;align=left;overflow=fill;html=1;whiteSpace=wrap;fillColor=none;" parent="1" vertex="1">
          <mxGeometry x="1520" y="450" width="460" height="205" as="geometry" />
        </mxCell>
        <mxCell id="YF1ZqDDAbzUs63sc3VQb-47" value="&lt;p style=&quot;margin:0px;margin-top:4px;text-align:center;&quot;&gt;&lt;b&gt;CursoExtra&lt;/b&gt;&lt;/p&gt;&lt;hr size=&quot;1&quot; style=&quot;border-style:solid;&quot;&gt;&lt;p style=&quot;margin:0px;margin-left:4px;&quot;&gt;+ professor: String&lt;/p&gt;&lt;p style=&quot;margin:0px;margin-left:4px;&quot;&gt;&lt;br&gt;&lt;/p&gt;&lt;p style=&quot;margin:0px;margin-left:4px;&quot;&gt;+ descricao: String&lt;br&gt;&lt;/p&gt;&lt;hr size=&quot;1&quot; style=&quot;border-style:solid;&quot;&gt;&lt;p style=&quot;margin:0px;margin-left:4px;&quot;&gt;+ getProfessor(): Professor&lt;/p&gt;&lt;p style=&quot;margin:0px;margin-left:4px;&quot;&gt;&lt;br&gt;&lt;/p&gt;&lt;p style=&quot;margin:0px;margin-left:4px;&quot;&gt;+ getDescricao(): String&lt;/p&gt;&lt;p style=&quot;margin:0px;margin-left:4px;&quot;&gt;&lt;br&gt;&lt;/p&gt;&lt;p style=&quot;margin:0px;margin-left:4px;&quot;&gt;+ setProfessor(Professor p): void&lt;/p&gt;&lt;p style=&quot;margin:0px;margin-left:4px;&quot;&gt;&lt;br&gt;&lt;/p&gt;&lt;p style=&quot;margin:0px;margin-left:4px;&quot;&gt;+ setDescricao(String descricao): void&lt;/p&gt;" style="verticalAlign=middle;align=left;overflow=fill;html=1;whiteSpace=wrap;fillColor=none;" parent="1" vertex="1">
          <mxGeometry x="2090" y="133" width="462" height="200" as="geometry" />
        </mxCell>
        <mxCell id="YF1ZqDDAbzUs63sc3VQb-48" value="&lt;p style=&quot;margin:0px;margin-top:4px;text-align:center;&quot;&gt;&lt;b&gt;IniciacaoCientifica&lt;/b&gt;&lt;/p&gt;&lt;hr size=&quot;1&quot; style=&quot;border-style:solid;&quot;&gt;&lt;p style=&quot;margin:0px;margin-left:4px;&quot;&gt;+ orientador: Professor&lt;br&gt;&lt;/p&gt;&lt;hr size=&quot;1&quot; style=&quot;border-style:solid;&quot;&gt;&lt;p style=&quot;margin:0px;margin-left:4px;&quot;&gt;+ getOrientador(): Professor&lt;br&gt;&lt;/p&gt;&lt;p style=&quot;margin:0px;margin-left:4px;&quot;&gt;&lt;br&gt;&lt;/p&gt;&lt;p style=&quot;margin:0px;margin-left:4px;&quot;&gt;+ setOrientador(Professor p): void&lt;br&gt;&lt;/p&gt;" style="verticalAlign=middle;align=left;overflow=fill;html=1;whiteSpace=wrap;fillColor=none;" parent="1" vertex="1">
          <mxGeometry x="1120" y="216" width="460" height="120" as="geometry" />
        </mxCell>
        <mxCell id="YF1ZqDDAbzUs63sc3VQb-49" value="&lt;p style=&quot;margin:0px;margin-top:4px;text-align:center;&quot;&gt;&lt;b&gt;Palestra&lt;/b&gt;&lt;/p&gt;&lt;hr size=&quot;1&quot; style=&quot;border-style:solid;&quot;&gt;&lt;p style=&quot;margin:0px;margin-left:4px;&quot;&gt;+ palestrante: String&lt;/p&gt;&lt;p style=&quot;margin:0px;margin-left:4px;&quot;&gt;&lt;br&gt;&lt;/p&gt;&lt;p style=&quot;margin:0px;margin-left:4px;&quot;&gt;+ descricao: String&lt;br&gt;&lt;/p&gt;&lt;hr size=&quot;1&quot; style=&quot;border-style:solid;&quot;&gt;&lt;p style=&quot;margin:0px;margin-left:4px;&quot;&gt;+ getPalestrante(): String&lt;/p&gt;&lt;p style=&quot;margin:0px;margin-left:4px;&quot;&gt;&lt;br&gt;&lt;/p&gt;&lt;p style=&quot;margin:0px;margin-left:4px;&quot;&gt;+ getDescricao(): String&lt;/p&gt;&lt;p style=&quot;margin:0px;margin-left:4px;&quot;&gt;&lt;br&gt;&lt;/p&gt;&lt;p style=&quot;margin:0px;margin-left:4px;&quot;&gt;+ setPalestrante(): String&lt;/p&gt;&lt;p style=&quot;margin:0px;margin-left:4px;&quot;&gt;&lt;br&gt;&lt;/p&gt;&lt;p style=&quot;margin:0px;margin-left:4px;&quot;&gt;+ setDescricao(): String&lt;br&gt;&lt;/p&gt;" style="verticalAlign=middle;align=left;overflow=fill;html=1;whiteSpace=wrap;fillColor=none;" parent="1" vertex="1">
          <mxGeometry x="1600" y="130" width="460" height="206" as="geometry" />
        </mxCell>
        <mxCell id="YF1ZqDDAbzUs63sc3VQb-45" value="&lt;p style=&quot;margin:0px;margin-top:4px;text-align:center;&quot;&gt;&lt;b&gt;AtividadeExtraCurricular&lt;/b&gt;&lt;br&gt;&lt;/p&gt;&lt;hr size=&quot;1&quot; style=&quot;border-style:solid;&quot;&gt;&lt;p style=&quot;margin:0px;margin-left:4px;&quot;&gt;+ horasTotais: double&lt;/p&gt;&lt;p style=&quot;margin:0px;margin-left:4px;&quot;&gt;&lt;br&gt;&lt;/p&gt;&lt;p style=&quot;margin:0px;margin-left:4px;&quot;&gt;+ atividades: ArrayList&amp;lt;AtividadeExtra&amp;gt;&lt;/p&gt;&lt;hr size=&quot;1&quot; style=&quot;border-style:solid;&quot;&gt;&lt;p style=&quot;margin:0px;margin-left:4px;&quot;&gt;+ addIniciacaoCientifica(IniciacaoCientifica ic): void&lt;/p&gt;&lt;p style=&quot;margin:0px;margin-left:4px;&quot;&gt;&lt;br&gt;&lt;/p&gt;&lt;p style=&quot;margin:0px;margin-left:4px;&quot;&gt;+ addPalestra(Palestra p): void&lt;/p&gt;&lt;p style=&quot;margin:0px;margin-left:4px;&quot;&gt;&lt;/p&gt;&lt;p style=&quot;margin:0px;margin-left:4px;&quot;&gt;&lt;br&gt;&lt;/p&gt;&lt;p style=&quot;margin:0px;margin-left:4px;&quot;&gt;+ addCursoExtra(CursoExtra ce): void&lt;/p&gt;&lt;p style=&quot;margin:0px;margin-left:4px;&quot;&gt;&lt;br&gt;&lt;/p&gt;&lt;p style=&quot;margin:0px;margin-left:4px;&quot;&gt;+ getHorasTotais(): double&lt;br&gt;&lt;/p&gt;&lt;p style=&quot;margin:0px;margin-left:4px;&quot;&gt;&lt;br&gt;&lt;/p&gt;&lt;p style=&quot;margin:0px;margin-left:4px;&quot;&gt;+ getQtdAtividades(): int&lt;/p&gt;&lt;p style=&quot;margin:0px;margin-left:4px;&quot;&gt;&lt;br&gt;&lt;/p&gt;&lt;p style=&quot;margin:0px;margin-left:4px;&quot;&gt;+ getAtividades(): ArrayList&amp;lt;AtividadeExtra&amp;gt;&lt;/p&gt;&lt;p style=&quot;margin:0px;margin-left:4px;&quot;&gt;&lt;br&gt;&lt;/p&gt;&lt;p style=&quot;margin:0px;margin-left:4px;&quot;&gt;+ getIniciacoesCientificas(): ArrayList&amp;lt;IniciacaoCientifica&amp;gt;&lt;/p&gt;&lt;p style=&quot;margin:0px;margin-left:4px;&quot;&gt;&lt;br&gt;&lt;/p&gt;&lt;p style=&quot;margin:0px;margin-left:4px;&quot;&gt;+ getPalestras(): ArrayList&amp;lt;Palestra&amp;gt;&lt;/p&gt;&lt;p style=&quot;margin:0px;margin-left:4px;&quot;&gt;&lt;br&gt;&lt;/p&gt;&lt;p style=&quot;margin:0px;margin-left:4px;&quot;&gt;+ getCursosExtras(): ArrayList&amp;lt;CursoExtra&amp;gt;&lt;/p&gt;" style="verticalAlign=middle;align=left;overflow=fill;html=1;whiteSpace=wrap;fillColor=none;" parent="1" vertex="1">
          <mxGeometry x="-330" y="1230" width="463" height="350" as="geometry" />
        </mxCell>
        <mxCell id="YF1ZqDDAbzUs63sc3VQb-66" style="edgeStyle=orthogonalEdgeStyle;rounded=0;orthogonalLoop=1;jettySize=auto;html=1;exitX=0.5;exitY=0;exitDx=0;exitDy=0;entryX=0.505;entryY=1.024;entryDx=0;entryDy=0;entryPerimeter=0;" parent="1" source="YF1ZqDDAbzUs63sc3VQb-9" target="YF1ZqDDAbzUs63sc3VQb-15" edge="1">
          <mxGeometry relative="1" as="geometry" />
        </mxCell>
        <mxCell id="YF1ZqDDAbzUs63sc3VQb-67" style="edgeStyle=orthogonalEdgeStyle;rounded=0;orthogonalLoop=1;jettySize=auto;html=1;exitX=0.5;exitY=0;exitDx=0;exitDy=0;entryX=0.492;entryY=1.005;entryDx=0;entryDy=0;entryPerimeter=0;" parent="1" source="YF1ZqDDAbzUs63sc3VQb-14" target="YF1ZqDDAbzUs63sc3VQb-21" edge="1">
          <mxGeometry relative="1" as="geometry" />
        </mxCell>
        <mxCell id="nyBCeVaaIGkUM6Ecv3Yj-1" value="&lt;b&gt;Turma&lt;/b&gt;" style="swimlane;fontStyle=0;childLayout=stackLayout;horizontal=1;startSize=30;horizontalStack=0;resizeParent=1;resizeParentMax=0;resizeLast=0;collapsible=1;marginBottom=0;whiteSpace=wrap;html=1;fillColor=default;" parent="1" vertex="1">
          <mxGeometry x="170" y="1180" width="460" height="270" as="geometry" />
        </mxCell>
        <mxCell id="nyBCeVaaIGkUM6Ecv3Yj-2" value="- nomeTurma: String&lt;div style=&quot;line-height: 200%;&quot;&gt;- ID: String&lt;/div&gt;&lt;div style=&quot;line-height: 200%;&quot;&gt;- quantidadeVagas: int&lt;/div&gt;&lt;div style=&quot;line-height: 200%;&quot;&gt;- alunos: Aluno&lt;/div&gt;&lt;div style=&quot;line-height: 200%;&quot;&gt;- disciplinas: Disciplina&lt;/div&gt;" style="text;strokeColor=default;fillColor=none;align=left;verticalAlign=middle;spacingLeft=4;spacingRight=4;overflow=hidden;points=[[0,0.5],[1,0.5]];portConstraint=eastwest;rotatable=0;whiteSpace=wrap;html=1;labelBorderColor=none;" parent="nyBCeVaaIGkUM6Ecv3Yj-1" vertex="1">
          <mxGeometry y="30" width="460" height="120" as="geometry" />
        </mxCell>
        <mxCell id="nyBCeVaaIGkUM6Ecv3Yj-3" value="+ void adicionarAluno(Aluno aluno)&lt;div style=&quot;line-height: 260%;&quot;&gt;+ void removerAluno(Aluno aluno)&lt;/div&gt;&lt;div style=&quot;line-height: 260%;&quot;&gt;+ void adicionarDisciplina(Disciplina Disciplina)&lt;/div&gt;&lt;div style=&quot;line-height: 260%;&quot;&gt;+ void removerDisciplina(Disciplina disciplina)&lt;/div&gt;" style="text;strokeColor=none;fillColor=none;align=left;verticalAlign=middle;spacingLeft=4;spacingRight=4;overflow=hidden;points=[[0,0.5],[1,0.5]];portConstraint=eastwest;rotatable=0;whiteSpace=wrap;html=1;" parent="nyBCeVaaIGkUM6Ecv3Yj-1" vertex="1">
          <mxGeometry y="150" width="460" height="120" as="geometry" />
        </mxCell>
        <mxCell id="YF1ZqDDAbzUs63sc3VQb-80" value="Aluno" style="swimlane;fontStyle=1;align=center;verticalAlign=top;childLayout=stackLayout;horizontal=1;startSize=26;horizontalStack=0;resizeParent=1;resizeParentMax=0;resizeLast=0;collapsible=1;marginBottom=0;whiteSpace=wrap;html=1;fillColor=default;" parent="1" vertex="1">
          <mxGeometry x="910" y="-270" width="472" height="230" as="geometry" />
        </mxCell>
        <mxCell id="YF1ZqDDAbzUs63sc3VQb-81" value="&lt;div style=&quot;line-height: 160%;&quot;&gt;- matricula: String;&amp;nbsp;&lt;/div&gt;&lt;div style=&quot;line-height: 160%;&quot;&gt;- curso: String;&lt;/div&gt;&lt;div style=&quot;line-height: 160%;&quot;&gt;- provas: ArrayList;&lt;/div&gt;&lt;div style=&quot;line-height: 160%;&quot;&gt;- trabalhos: ArrayList;&lt;/div&gt;&lt;div style=&quot;line-height: 160%;&quot;&gt;- pontosExtras: ArrayList;&amp;nbsp;&lt;br&gt;&lt;/div&gt;" style="text;strokeColor=none;fillColor=none;align=left;verticalAlign=middle;spacingLeft=4;spacingRight=4;overflow=hidden;rotatable=0;points=[[0,0.5],[1,0.5]];portConstraint=eastwest;whiteSpace=wrap;html=1;" parent="YF1ZqDDAbzUs63sc3VQb-80" vertex="1">
          <mxGeometry y="26" width="472" height="114" as="geometry" />
        </mxCell>
        <mxCell id="YF1ZqDDAbzUs63sc3VQb-82" value="" style="line;strokeWidth=1;fillColor=none;align=left;verticalAlign=middle;spacingTop=-1;spacingLeft=3;spacingRight=3;rotatable=0;labelPosition=right;points=[];portConstraint=eastwest;strokeColor=inherit;" parent="YF1ZqDDAbzUs63sc3VQb-80" vertex="1">
          <mxGeometry y="140" width="472" height="8" as="geometry" />
        </mxCell>
        <mxCell id="YF1ZqDDAbzUs63sc3VQb-83" value="- adicionarProva(nota: double): void;&lt;br/&gt;- adicionarTrabalho(nota: double): void;&lt;br/&gt;- exibirInfo(): void;&lt;br/&gt;- adicionarPontoExtra(nota: double): void;&lt;br/&gt;- copiarNotasDisciplina(disciplina: Disciplina): void;" style="text;strokeColor=none;fillColor=none;align=left;verticalAlign=top;spacingLeft=4;spacingRight=4;overflow=hidden;rotatable=0;points=[[0,0.5],[1,0.5]];portConstraint=eastwest;whiteSpace=wrap;html=1;" parent="YF1ZqDDAbzUs63sc3VQb-80" vertex="1">
          <mxGeometry y="148" width="472" height="82" as="geometry" />
        </mxCell>
        <mxCell id="sDDxGcO6GiRr_8JJlsQ9-1" style="edgeStyle=orthogonalEdgeStyle;rounded=0;orthogonalLoop=1;jettySize=auto;html=1;entryX=0.386;entryY=1.038;entryDx=0;entryDy=0;entryPerimeter=0;" edge="1" parent="1" source="YF1ZqDDAbzUs63sc3VQb-6" target="YF1ZqDDAbzUs63sc3VQb-5">
          <mxGeometry relative="1" as="geometry" />
        </mxCell>
        <mxCell id="sDDxGcO6GiRr_8JJlsQ9-6" style="edgeStyle=orthogonalEdgeStyle;rounded=0;orthogonalLoop=1;jettySize=auto;html=1;exitX=0.5;exitY=0;exitDx=0;exitDy=0;entryX=0.54;entryY=1.003;entryDx=0;entryDy=0;entryPerimeter=0;" edge="1" parent="1" source="YF1ZqDDAbzUs63sc3VQb-46" target="YF1ZqDDAbzUs63sc3VQb-47">
          <mxGeometry relative="1" as="geometry" />
        </mxCell>
        <mxCell id="sDDxGcO6GiRr_8JJlsQ9-11" style="edgeStyle=orthogonalEdgeStyle;rounded=0;orthogonalLoop=1;jettySize=auto;html=1;exitX=0.5;exitY=0;exitDx=0;exitDy=0;entryX=0.506;entryY=1.009;entryDx=0;entryDy=0;entryPerimeter=0;" edge="1" parent="1" source="sDDxGcO6GiRr_8JJlsQ9-12" target="sDDxGcO6GiRr_8JJlsQ9-19">
          <mxGeometry relative="1" as="geometry">
            <mxPoint x="1920" y="-570" as="targetPoint" />
            <Array as="points">
              <mxPoint x="1816" y="-525" />
              <mxPoint x="1919" y="-525" />
            </Array>
          </mxGeometry>
        </mxCell>
        <mxCell id="sDDxGcO6GiRr_8JJlsQ9-12" value="Biblioteca" style="swimlane;fontStyle=1;align=center;verticalAlign=top;childLayout=stackLayout;horizontal=1;startSize=26;horizontalStack=0;resizeParent=1;resizeParentMax=0;resizeLast=0;collapsible=1;marginBottom=0;whiteSpace=wrap;html=1;fillColor=default;" vertex="1" parent="1">
          <mxGeometry x="1580" y="-470" width="472" height="300" as="geometry" />
        </mxCell>
        <mxCell id="sDDxGcO6GiRr_8JJlsQ9-13" value="&lt;div style=&quot;line-height: 160%;&quot;&gt;- usuarios: ArrayList&amp;lt;Usuario&amp;gt;&amp;nbsp;&lt;/div&gt;&lt;div style=&quot;line-height: 160%;&quot;&gt;- livros: ArrayList&amp;lt;Livro&amp;gt;&amp;nbsp;&lt;br&gt;&lt;/div&gt;" style="text;strokeColor=none;fillColor=none;align=left;verticalAlign=middle;spacingLeft=4;spacingRight=4;overflow=hidden;rotatable=0;points=[[0,0.5],[1,0.5]];portConstraint=eastwest;whiteSpace=wrap;html=1;" vertex="1" parent="sDDxGcO6GiRr_8JJlsQ9-12">
          <mxGeometry y="26" width="472" height="54" as="geometry" />
        </mxCell>
        <mxCell id="sDDxGcO6GiRr_8JJlsQ9-14" value="" style="line;strokeWidth=1;fillColor=none;align=left;verticalAlign=middle;spacingTop=-1;spacingLeft=3;spacingRight=3;rotatable=0;labelPosition=right;points=[];portConstraint=eastwest;strokeColor=inherit;" vertex="1" parent="sDDxGcO6GiRr_8JJlsQ9-12">
          <mxGeometry y="80" width="472" height="8" as="geometry" />
        </mxCell>
        <mxCell id="sDDxGcO6GiRr_8JJlsQ9-15" value="+ &lt;span class=&quot;hljs-title function_ invoke__&quot;&gt;Biblioteca&lt;/span&gt;()&amp;nbsp;&lt;br&gt;+ &lt;span class=&quot;hljs-title function_ invoke__&quot;&gt;addUsuario&lt;/span&gt;(&lt;span class=&quot;hljs-attr&quot;&gt;usuario&lt;/span&gt;: Usuario): &lt;span class=&quot;hljs-keyword&quot;&gt;boolean&lt;/span&gt;&amp;nbsp;&lt;br&gt;+ &lt;span class=&quot;hljs-title function_ invoke__&quot;&gt;addLivro&lt;/span&gt;(&lt;span class=&quot;hljs-attr&quot;&gt;livro&lt;/span&gt;: Livro): &lt;span class=&quot;hljs-keyword&quot;&gt;boolean&lt;/span&gt;&amp;nbsp;&lt;br&gt;+ &lt;span class=&quot;hljs-title function_ invoke__&quot;&gt;buscaLivro&lt;/span&gt;(&lt;span class=&quot;hljs-attr&quot;&gt;livro&lt;/span&gt;: Livro): &lt;span class=&quot;hljs-keyword&quot;&gt;boolean&lt;/span&gt;&amp;nbsp;&lt;br&gt;+ &lt;span class=&quot;hljs-title function_ invoke__&quot;&gt;buscaUsuario&lt;/span&gt;(&lt;span class=&quot;hljs-attr&quot;&gt;usuario&lt;/span&gt;: Usuario): &lt;span class=&quot;hljs-keyword&quot;&gt;boolean&lt;/span&gt;&amp;nbsp;&lt;br&gt;+ &lt;span class=&quot;hljs-title function_ invoke__&quot;&gt;removeUsuario&lt;/span&gt;(&lt;span class=&quot;hljs-attr&quot;&gt;usuario&lt;/span&gt;: Usuario): &lt;span class=&quot;hljs-keyword&quot;&gt;boolean&lt;/span&gt;&amp;nbsp;&lt;br&gt;+ &lt;span class=&quot;hljs-title function_ invoke__&quot;&gt;removeLivro&lt;/span&gt;(&lt;span class=&quot;hljs-attr&quot;&gt;livro&lt;/span&gt;: Livro): &lt;span class=&quot;hljs-keyword&quot;&gt;boolean&lt;/span&gt;&amp;nbsp;&lt;br&gt;+ &lt;span class=&quot;hljs-title function_ invoke__&quot;&gt;emprestimo&lt;/span&gt;(&lt;span class=&quot;hljs-attr&quot;&gt;livro&lt;/span&gt;: Livro, &lt;span class=&quot;hljs-attr&quot;&gt;usuario&lt;/span&gt;: Usuario): &lt;span class=&quot;hljs-keyword&quot;&gt;boolean&lt;/span&gt;&amp;nbsp;&lt;br&gt;+ &lt;span class=&quot;hljs-title function_ invoke__&quot;&gt;devolucao&lt;/span&gt;(&lt;span class=&quot;hljs-attr&quot;&gt;livro&lt;/span&gt;: Livro, &lt;span class=&quot;hljs-attr&quot;&gt;usuario&lt;/span&gt;: Usuario): &lt;span class=&quot;hljs-keyword&quot;&gt;boolean&lt;/span&gt;&amp;nbsp;&lt;br&gt;+ &lt;span class=&quot;hljs-title function_ invoke__&quot;&gt;verificaAddMultaDiariamente&lt;/span&gt;(): &lt;span class=&quot;hljs-keyword&quot;&gt;void&lt;/span&gt;&amp;nbsp;&lt;br&gt;+ &lt;span class=&quot;hljs-title function_ invoke__&quot;&gt;verificaRemoveMultaDiariamente&lt;/span&gt;(): &lt;span class=&quot;hljs-keyword&quot;&gt;void&lt;/span&gt;&amp;nbsp;&lt;br&gt;+ &lt;span class=&quot;hljs-title function_ invoke__&quot;&gt;ordenaLivrosOrdemAlfabetica&lt;/span&gt;(): &lt;span class=&quot;hljs-keyword&quot;&gt;void&lt;/span&gt;&amp;nbsp;&lt;br&gt;+ &lt;span class=&quot;hljs-title function_ invoke__&quot;&gt;getLivros&lt;/span&gt;(): ArrayList&amp;lt;Livro&amp;gt;&amp;nbsp;&lt;br&gt;+ &lt;span class=&quot;hljs-title function_ invoke__&quot;&gt;getUsuarios&lt;/span&gt;(): ArrayList&amp;lt;Usuario&amp;gt;" style="text;strokeColor=none;fillColor=none;align=left;verticalAlign=top;spacingLeft=4;spacingRight=4;overflow=hidden;rotatable=0;points=[[0,0.5],[1,0.5]];portConstraint=eastwest;whiteSpace=wrap;html=1;" vertex="1" parent="sDDxGcO6GiRr_8JJlsQ9-12">
          <mxGeometry y="88" width="472" height="212" as="geometry" />
        </mxCell>
        <mxCell id="sDDxGcO6GiRr_8JJlsQ9-16" value="BibliotecaEscolar" style="swimlane;fontStyle=1;align=center;verticalAlign=top;childLayout=stackLayout;horizontal=1;startSize=26;horizontalStack=0;resizeParent=1;resizeParentMax=0;resizeLast=0;collapsible=1;marginBottom=0;whiteSpace=wrap;html=1;fillColor=default;" vertex="1" parent="1">
          <mxGeometry x="1680" y="-730" width="472" height="96" as="geometry" />
        </mxCell>
        <mxCell id="sDDxGcO6GiRr_8JJlsQ9-17" value="&lt;div style=&quot;line-height: 160%;&quot;&gt;(herda de Biblioteca)&lt;br&gt;&lt;/div&gt;" style="text;strokeColor=none;fillColor=none;align=left;verticalAlign=middle;spacingLeft=4;spacingRight=4;overflow=hidden;rotatable=0;points=[[0,0.5],[1,0.5]];portConstraint=eastwest;whiteSpace=wrap;html=1;" vertex="1" parent="sDDxGcO6GiRr_8JJlsQ9-16">
          <mxGeometry y="26" width="472" height="34" as="geometry" />
        </mxCell>
        <mxCell id="sDDxGcO6GiRr_8JJlsQ9-18" value="" style="line;strokeWidth=1;fillColor=none;align=left;verticalAlign=middle;spacingTop=-1;spacingLeft=3;spacingRight=3;rotatable=0;labelPosition=right;points=[];portConstraint=eastwest;strokeColor=inherit;" vertex="1" parent="sDDxGcO6GiRr_8JJlsQ9-16">
          <mxGeometry y="60" width="472" height="8" as="geometry" />
        </mxCell>
        <mxCell id="sDDxGcO6GiRr_8JJlsQ9-19" value="+ recomendacoes(disciplina: String): ArrayList&amp;lt;LivroDidatico&amp;gt;" style="text;strokeColor=none;fillColor=none;align=left;verticalAlign=top;spacingLeft=4;spacingRight=4;overflow=hidden;rotatable=0;points=[[0,0.5],[1,0.5]];portConstraint=eastwest;whiteSpace=wrap;html=1;" vertex="1" parent="sDDxGcO6GiRr_8JJlsQ9-16">
          <mxGeometry y="68" width="472" height="28" as="geometry" />
        </mxCell>
        <mxCell id="sDDxGcO6GiRr_8JJlsQ9-20" value="&lt;b&gt;Emprestimo&lt;/b&gt;" style="swimlane;fontStyle=0;childLayout=stackLayout;horizontal=1;startSize=30;horizontalStack=0;resizeParent=1;resizeParentMax=0;resizeLast=0;collapsible=1;marginBottom=0;whiteSpace=wrap;html=1;fillColor=default;" vertex="1" parent="1">
          <mxGeometry x="2220" y="-700" width="460" height="190" as="geometry" />
        </mxCell>
        <mxCell id="sDDxGcO6GiRr_8JJlsQ9-21" value="- diaEmprestimo: LocalDate&lt;div&gt;- diaDevolucao: LocalDate&lt;/div&gt;&lt;div&gt;- diaAtual: LocalDate&lt;br&gt;&lt;/div&gt;" style="text;strokeColor=default;fillColor=none;align=left;verticalAlign=middle;spacingLeft=4;spacingRight=4;overflow=hidden;points=[[0,0.5],[1,0.5]];portConstraint=eastwest;rotatable=0;whiteSpace=wrap;html=1;labelBorderColor=none;" vertex="1" parent="sDDxGcO6GiRr_8JJlsQ9-20">
          <mxGeometry y="30" width="460" height="60" as="geometry" />
        </mxCell>
        <mxCell id="sDDxGcO6GiRr_8JJlsQ9-22" value="+ &lt;span class=&quot;hljs-built_in&quot;&gt;Emprestimo&lt;/span&gt;()&amp;nbsp;&lt;div&gt;+ &lt;span class=&quot;hljs-built_in&quot;&gt;calculaDataDevolucao&lt;/span&gt;(): LocalDate&amp;nbsp;&lt;/div&gt;&lt;div&gt;+ &lt;span class=&quot;hljs-built_in&quot;&gt;getDiaEmprestimo&lt;/span&gt;(): LocalDate&lt;/div&gt;&lt;div&gt;+ &lt;span class=&quot;hljs-built_in&quot;&gt;getDiaDevolucao&lt;/span&gt;(): LocalDate&lt;/div&gt;&lt;div&gt;+ &lt;span class=&quot;hljs-built_in&quot;&gt;getDiaAtual&lt;/span&gt;(): LocalDate&amp;nbsp;&lt;/div&gt;&lt;div&gt;+ &lt;span class=&quot;hljs-built_in&quot;&gt;verificaMulta&lt;/span&gt;(): boolean&lt;br&gt;&lt;/div&gt;" style="text;strokeColor=none;fillColor=none;align=left;verticalAlign=middle;spacingLeft=4;spacingRight=4;overflow=hidden;points=[[0,0.5],[1,0.5]];portConstraint=eastwest;rotatable=0;whiteSpace=wrap;html=1;" vertex="1" parent="sDDxGcO6GiRr_8JJlsQ9-20">
          <mxGeometry y="90" width="460" height="100" as="geometry" />
        </mxCell>
        <mxCell id="sDDxGcO6GiRr_8JJlsQ9-26" style="edgeStyle=orthogonalEdgeStyle;rounded=0;orthogonalLoop=1;jettySize=auto;html=1;exitX=0.5;exitY=0;exitDx=0;exitDy=0;entryX=0.539;entryY=1.013;entryDx=0;entryDy=0;entryPerimeter=0;" edge="1" parent="1" source="sDDxGcO6GiRr_8JJlsQ9-27" target="sDDxGcO6GiRr_8JJlsQ9-32">
          <mxGeometry relative="1" as="geometry">
            <mxPoint x="2470" y="-320" as="targetPoint" />
          </mxGeometry>
        </mxCell>
        <mxCell id="sDDxGcO6GiRr_8JJlsQ9-27" value="&lt;b&gt;Livro&lt;/b&gt;" style="swimlane;fontStyle=0;childLayout=stackLayout;horizontal=1;startSize=30;horizontalStack=0;resizeParent=1;resizeParentMax=0;resizeLast=0;collapsible=1;marginBottom=0;whiteSpace=wrap;html=1;fillColor=default;" vertex="1" parent="1">
          <mxGeometry x="2080" y="-255" width="460" height="310" as="geometry" />
        </mxCell>
        <mxCell id="sDDxGcO6GiRr_8JJlsQ9-28" value="&lt;div&gt;- titulo: String&lt;/div&gt;&lt;div&gt;- autor: String&lt;/div&gt;&lt;div&gt;- ISBN: String&lt;/div&gt;&lt;div&gt;- emprestado: &lt;span class=&quot;hljs-keyword&quot;&gt;boolean&lt;/span&gt;&amp;nbsp;&lt;/div&gt;&lt;div&gt;&lt;span style=&quot;background-color: initial;&quot;&gt;- genero: String&amp;nbsp;&amp;nbsp;&lt;/span&gt;&lt;/div&gt;" style="text;strokeColor=default;fillColor=none;align=left;verticalAlign=middle;spacingLeft=4;spacingRight=4;overflow=hidden;points=[[0,0.5],[1,0.5]];portConstraint=eastwest;rotatable=0;whiteSpace=wrap;html=1;labelBorderColor=none;" vertex="1" parent="sDDxGcO6GiRr_8JJlsQ9-27">
          <mxGeometry y="30" width="460" height="90" as="geometry" />
        </mxCell>
        <mxCell id="sDDxGcO6GiRr_8JJlsQ9-29" value="&lt;div&gt;+ &lt;span class=&quot;hljs-title function_ invoke__&quot;&gt;Livro&lt;/span&gt;()&amp;nbsp;&lt;/div&gt;&lt;div&gt;+ &lt;span class=&quot;hljs-title function_ invoke__&quot;&gt;Livro&lt;/span&gt;(&lt;span class=&quot;hljs-attr&quot;&gt;titulo&lt;/span&gt;: String, &lt;span class=&quot;hljs-attr&quot;&gt;autor&lt;/span&gt;: String, &lt;span class=&quot;hljs-attr&quot;&gt;ISBN&lt;/span&gt;: String, &lt;span class=&quot;hljs-attr&quot;&gt;genero&lt;/span&gt;: String)&lt;/div&gt;&lt;div&gt;+ &lt;span class=&quot;hljs-title function_ invoke__&quot;&gt;setTitulo&lt;/span&gt;(&lt;span class=&quot;hljs-attr&quot;&gt;titulo&lt;/span&gt;: String): &lt;span class=&quot;hljs-keyword&quot;&gt;void&lt;/span&gt;&amp;nbsp;&lt;/div&gt;&lt;div&gt;+ &lt;span class=&quot;hljs-title function_ invoke__&quot;&gt;setAutor&lt;/span&gt;(&lt;span class=&quot;hljs-attr&quot;&gt;autor&lt;/span&gt;: String): &lt;span class=&quot;hljs-keyword&quot;&gt;void&lt;/span&gt;&amp;nbsp;&lt;/div&gt;&lt;div&gt;+ &lt;span class=&quot;hljs-title function_ invoke__&quot;&gt;setISBN&lt;/span&gt;(&lt;span class=&quot;hljs-attr&quot;&gt;ISBN&lt;/span&gt;: String): &lt;span class=&quot;hljs-keyword&quot;&gt;void&lt;/span&gt;&amp;nbsp;&lt;/div&gt;&lt;div&gt;+ &lt;span class=&quot;hljs-title function_ invoke__&quot;&gt;setEmprestado&lt;/span&gt;(&lt;span class=&quot;hljs-attr&quot;&gt;emprestado&lt;/span&gt;: &lt;span class=&quot;hljs-keyword&quot;&gt;boolean&lt;/span&gt;): &lt;span class=&quot;hljs-keyword&quot;&gt;void&lt;/span&gt;&lt;/div&gt;&lt;div&gt;+ &lt;span class=&quot;hljs-title function_ invoke__&quot;&gt;setGenero&lt;/span&gt;(&lt;span class=&quot;hljs-attr&quot;&gt;genero&lt;/span&gt;: String): &lt;span class=&quot;hljs-keyword&quot;&gt;void&lt;/span&gt;&amp;nbsp;&lt;/div&gt;&lt;div&gt;+ &lt;span class=&quot;hljs-title function_ invoke__&quot;&gt;getTitulo&lt;/span&gt;(): String&amp;nbsp;&lt;/div&gt;&lt;div&gt;+ &lt;span class=&quot;hljs-title function_ invoke__&quot;&gt;getAutor&lt;/span&gt;(): String&amp;nbsp;&lt;br&gt;+ &lt;span class=&quot;hljs-title function_ invoke__&quot;&gt;getISBN&lt;/span&gt;(): String&amp;nbsp;&lt;br&gt;+ &lt;span class=&quot;hljs-title function_ invoke__&quot;&gt;getEmprestado&lt;/span&gt;(): &lt;span class=&quot;hljs-keyword&quot;&gt;boolean&lt;/span&gt;&amp;nbsp;&lt;br&gt;+ &lt;span class=&quot;hljs-title function_ invoke__&quot;&gt;getGenero&lt;/span&gt;(): String&lt;br&gt;&lt;/div&gt;" style="text;strokeColor=none;fillColor=none;align=left;verticalAlign=middle;spacingLeft=4;spacingRight=4;overflow=hidden;points=[[0,0.5],[1,0.5]];portConstraint=eastwest;rotatable=0;whiteSpace=wrap;html=1;" vertex="1" parent="sDDxGcO6GiRr_8JJlsQ9-27">
          <mxGeometry y="120" width="460" height="190" as="geometry" />
        </mxCell>
        <mxCell id="sDDxGcO6GiRr_8JJlsQ9-30" value="&lt;b&gt;LivroDidatico&lt;/b&gt;" style="swimlane;fontStyle=0;childLayout=stackLayout;horizontal=1;startSize=30;horizontalStack=0;resizeParent=1;resizeParentMax=0;resizeLast=0;collapsible=1;marginBottom=0;whiteSpace=wrap;html=1;fillColor=default;" vertex="1" parent="1">
          <mxGeometry x="2220" y="-470" width="460" height="140" as="geometry" />
        </mxCell>
        <mxCell id="sDDxGcO6GiRr_8JJlsQ9-31" value="- disciplina: &lt;span class=&quot;hljs-type&quot;&gt;String&lt;/span&gt;" style="text;strokeColor=default;fillColor=none;align=left;verticalAlign=middle;spacingLeft=4;spacingRight=4;overflow=hidden;points=[[0,0.5],[1,0.5]];portConstraint=eastwest;rotatable=0;whiteSpace=wrap;html=1;labelBorderColor=none;" vertex="1" parent="sDDxGcO6GiRr_8JJlsQ9-30">
          <mxGeometry y="30" width="460" height="30" as="geometry" />
        </mxCell>
        <mxCell id="sDDxGcO6GiRr_8JJlsQ9-32" value="&lt;div&gt;+ &lt;span class=&quot;hljs-built_in&quot;&gt;LivroDidatico&lt;/span&gt;(titulo: &lt;span class=&quot;hljs-type&quot;&gt;String&lt;/span&gt;, autor: &lt;span class=&quot;hljs-type&quot;&gt;String&lt;/span&gt;, ISBN: &lt;span class=&quot;hljs-type&quot;&gt;String&lt;/span&gt;, genero: &lt;span class=&quot;hljs-type&quot;&gt;String&lt;/span&gt;, disciplina: &lt;span class=&quot;hljs-type&quot;&gt;String&lt;/span&gt;)&amp;nbsp;&lt;br&gt;+ &lt;span class=&quot;hljs-built_in&quot;&gt;setDisciplina&lt;/span&gt;(disciplina: &lt;span class=&quot;hljs-type&quot;&gt;String&lt;/span&gt;): &lt;span class=&quot;hljs-type&quot;&gt;void&lt;/span&gt;&amp;nbsp;&lt;br&gt;+ &lt;span class=&quot;hljs-built_in&quot;&gt;getDisciplina&lt;/span&gt;(): &lt;span class=&quot;hljs-type&quot;&gt;String&lt;/span&gt;&lt;br&gt;&lt;/div&gt;" style="text;strokeColor=none;fillColor=none;align=left;verticalAlign=middle;spacingLeft=4;spacingRight=4;overflow=hidden;points=[[0,0.5],[1,0.5]];portConstraint=eastwest;rotatable=0;whiteSpace=wrap;html=1;" vertex="1" parent="sDDxGcO6GiRr_8JJlsQ9-30">
          <mxGeometry y="60" width="460" height="80" as="geometry" />
        </mxCell>
        <mxCell id="sDDxGcO6GiRr_8JJlsQ9-33" value="&lt;p style=&quot;margin:0px;margin-top:4px;text-align:center;&quot;&gt;&lt;b&gt;Multa&lt;/b&gt;&lt;br&gt;&lt;/p&gt;&lt;hr size=&quot;1&quot; style=&quot;border-style:solid;&quot;&gt;&lt;p style=&quot;margin:0px;margin-left:4px;&quot;&gt;- diaAtual: LocalDate&amp;nbsp;&lt;br&gt;- inicioMulta: LocalDate&amp;nbsp;&lt;br&gt;- fimMulta: LocalDate&amp;nbsp;&lt;br&gt;- livro: Livro&lt;br&gt;&lt;/p&gt;&lt;hr size=&quot;1&quot; style=&quot;border-style:solid;&quot;&gt;&lt;p style=&quot;margin:0px;margin-left:4px;&quot;&gt;+ &lt;span class=&quot;hljs-built_in&quot;&gt;Multa&lt;/span&gt;()&amp;nbsp;&lt;br&gt;+ &lt;span class=&quot;hljs-built_in&quot;&gt;getDiaAtual&lt;/span&gt;(): LocalDate&amp;nbsp;&lt;br&gt;+ &lt;span class=&quot;hljs-built_in&quot;&gt;getInicioMulta&lt;/span&gt;(): LocalDate&amp;nbsp;&lt;br&gt;+ &lt;span class=&quot;hljs-built_in&quot;&gt;getFimMulta&lt;/span&gt;(): LocalDate&amp;nbsp;&lt;br&gt;+ &lt;span class=&quot;hljs-built_in&quot;&gt;getLivro&lt;/span&gt;(): Livro&amp;nbsp;&lt;br&gt;+ &lt;span class=&quot;hljs-built_in&quot;&gt;aplicaMulta&lt;/span&gt;(livro: Livro): void&amp;nbsp;&lt;br&gt;+ &lt;span class=&quot;hljs-built_in&quot;&gt;removeMulta&lt;/span&gt;(usuario: Usuario): boolean&lt;br&gt;&lt;/p&gt;" style="verticalAlign=middle;align=left;overflow=fill;html=1;whiteSpace=wrap;fillColor=none;" vertex="1" parent="1">
          <mxGeometry x="1800" y="750" width="460" height="205" as="geometry" />
        </mxCell>
        <mxCell id="sDDxGcO6GiRr_8JJlsQ9-34" value="&lt;p style=&quot;margin:0px;margin-top:4px;text-align:center;&quot;&gt;&lt;b&gt;Notas&lt;/b&gt;&lt;/p&gt;&lt;hr size=&quot;1&quot; style=&quot;border-style:solid;&quot;&gt;&lt;p style=&quot;margin:0px;margin-left:4px;&quot;&gt;- instance: Notas&amp;nbsp;&lt;br&gt;- escola: Escola&amp;nbsp;&lt;br&gt;- disciplinas: ArrayList&amp;lt;Disciplina&amp;gt;&lt;br&gt;&lt;/p&gt;&lt;hr size=&quot;1&quot; style=&quot;border-style:solid;&quot;&gt;&lt;p style=&quot;margin:0px;margin-left:4px;&quot;&gt;+ getInstance(disciplinas: ArrayList&amp;lt;Disciplina&amp;gt;): Notas&amp;nbsp;&lt;br&gt;+ getNomeProfessor(disciplina: Disciplina, nomeProfessor: String): Professor&amp;nbsp;&lt;br&gt;+ getNomeTurma(disciplina: Disciplina, nomeTurma: String): Turma&amp;nbsp;&lt;br&gt;+ getNomeProva(disciplina: Disciplina, nomeProva: String): Prova&amp;nbsp;&lt;br&gt;+ getNomeTrabalho(disciplina: Disciplina, nomeTrabalho: String): Trabalho&amp;nbsp;&lt;br&gt;+ getNomePontoExtra(disciplina: Disciplina, nomePontoExtra: String): PontoExtra&amp;nbsp;&lt;br&gt;+ getNomeAluno(turma: Turma, nomeAluno: String): Aluno&amp;nbsp;&lt;br&gt;+ removerProvaDisciplina(nomeDisciplina: String, nomeProfessor: String, nomeProva: String, nomeTurma: String, peso: float): void&amp;nbsp;&lt;br&gt;+ removerTrabalhoDisciplina(nomeDisciplina: String, nomeProfessor: String, nomeTrabalho: String, nomeTurma: String, peso: float): void&amp;nbsp;&lt;br&gt;+ removerPontoExtraDisciplina(nomeDisciplina: String, nomeProfessor: String, nomePontoExtra: String, nomeTurma: String): void&amp;nbsp;&lt;br&gt;+ adicionarProvaDisciplina(nomeDisciplina: String, nomeProfessor: String, nomeProva: String, nomeTurma: String, peso: float): void&amp;nbsp;&lt;br&gt;+ adicionarTrabalhoDisciplina(nomeDisciplina: String, nomeProfessor: String, nomeTurma: String, nomeTrabalho: String, peso: float): void&amp;nbsp;&lt;br&gt;+ adicionarPontoExtraDisciplina(nomeDisciplina: String, nomeProfessor: String, nomePontoExtra: String, nomeTurma: String, valorMaximo: float): void&amp;nbsp;&lt;br&gt;+ adicionarNotaProva(nomeAluno: String, nomeDisciplina: String, nomeProfessor: String, nomeProva: String, notaProva: float, nomeTurma: String): void&amp;nbsp;&lt;br&gt;+ adicionarNotaTrabalho(nomeAluno: String, nomeDisciplina: String, nomeProfessor: String, nomeTrabalho: String, notaTrabalho: float, nomeTurma: String): void&amp;nbsp;&lt;br&gt;+ adicionarNotaPontoExtra(nomeAluno: String, nomeDisciplina: String, nomeProfessor: String, nomePontoExtra: String, nomeTurma: String, valor: float): void&amp;nbsp;&lt;br&gt;+ removerNotaProva(nomeAluno: String, nomeDisciplina: String, nomeProfessor: String, nomeProva: String, notaProva: float, nomeTurma: String): void&amp;nbsp;&lt;br&gt;+ removerNotaTrabalho(nomeAluno: String, nomeDisciplina: String, nomeProfessor: String, nomeTrabalho: String, notaTrabalho: float, nomeTurma: String): void&amp;nbsp;&lt;br&gt;+ removerNotaPontoExtra(nomeAluno: String, nomeDisciplina: String, nomeProfessor: String, nomePontoExtra: String, nomeTurma: String, valor: float): void&amp;nbsp;&lt;br&gt;+ removerTrabalhos(nomeDisciplina: String, nomeProfessor: String, nomeTurma: String): void&lt;br&gt;&lt;/p&gt;" style="verticalAlign=middle;align=left;overflow=fill;html=1;whiteSpace=wrap;fillColor=none;" vertex="1" parent="1">
          <mxGeometry x="1810" y="1010" width="470" height="570" as="geometry" />
        </mxCell>
        <mxCell id="sDDxGcO6GiRr_8JJlsQ9-35" value="Prova" style="swimlane;fontStyle=1;align=center;verticalAlign=top;childLayout=stackLayout;horizontal=1;startSize=26;horizontalStack=0;resizeParent=1;resizeParentMax=0;resizeLast=0;collapsible=1;marginBottom=0;whiteSpace=wrap;html=1;fillColor=#ffffff;" vertex="1" parent="1">
          <mxGeometry x="-640" y="55" width="472" height="240" as="geometry" />
        </mxCell>
        <mxCell id="sDDxGcO6GiRr_8JJlsQ9-36" value="&lt;div style=&quot;line-height: 160%;&quot;&gt;- nomeProva: String&amp;nbsp;&lt;br&gt;- nota: &lt;span class=&quot;hljs-keyword&quot;&gt;float&lt;/span&gt;&amp;nbsp;&lt;br&gt;- peso: &lt;span class=&quot;hljs-keyword&quot;&gt;float&lt;/span&gt;&lt;br&gt;&lt;/div&gt;" style="text;strokeColor=none;fillColor=none;align=left;verticalAlign=middle;spacingLeft=4;spacingRight=4;overflow=hidden;rotatable=0;points=[[0,0.5],[1,0.5]];portConstraint=eastwest;whiteSpace=wrap;html=1;" vertex="1" parent="sDDxGcO6GiRr_8JJlsQ9-35">
          <mxGeometry y="26" width="472" height="64" as="geometry" />
        </mxCell>
        <mxCell id="sDDxGcO6GiRr_8JJlsQ9-37" value="" style="line;strokeWidth=1;fillColor=none;align=left;verticalAlign=middle;spacingTop=-1;spacingLeft=3;spacingRight=3;rotatable=0;labelPosition=right;points=[];portConstraint=eastwest;strokeColor=inherit;" vertex="1" parent="sDDxGcO6GiRr_8JJlsQ9-35">
          <mxGeometry y="90" width="472" height="8" as="geometry" />
        </mxCell>
        <mxCell id="sDDxGcO6GiRr_8JJlsQ9-38" value="+ &lt;span class=&quot;hljs-title function_ invoke__&quot;&gt;Prova&lt;/span&gt;()&amp;nbsp;&lt;br&gt;+ &lt;span class=&quot;hljs-title function_ invoke__&quot;&gt;Prova&lt;/span&gt;(&lt;span class=&quot;hljs-attr&quot;&gt;nomeProva&lt;/span&gt;: String, &lt;span class=&quot;hljs-attr&quot;&gt;peso&lt;/span&gt;: &lt;span class=&quot;hljs-keyword&quot;&gt;float&lt;/span&gt;)&amp;nbsp;&lt;br&gt;+ &lt;span class=&quot;hljs-title function_ invoke__&quot;&gt;getNomeProva&lt;/span&gt;(): String&amp;nbsp;&lt;br&gt;+ &lt;span class=&quot;hljs-title function_ invoke__&quot;&gt;setNomeProva&lt;/span&gt;(&lt;span class=&quot;hljs-attr&quot;&gt;nomeProva&lt;/span&gt;: String): &lt;span class=&quot;hljs-keyword&quot;&gt;void&lt;/span&gt;&amp;nbsp;&lt;br&gt;+ &lt;span class=&quot;hljs-title function_ invoke__&quot;&gt;getPeso&lt;/span&gt;(): &lt;span class=&quot;hljs-keyword&quot;&gt;float&lt;/span&gt;&amp;nbsp;&lt;br&gt;+ &lt;span class=&quot;hljs-title function_ invoke__&quot;&gt;setPeso&lt;/span&gt;(&lt;span class=&quot;hljs-attr&quot;&gt;peso&lt;/span&gt;: &lt;span class=&quot;hljs-keyword&quot;&gt;float&lt;/span&gt;): &lt;span class=&quot;hljs-keyword&quot;&gt;void&lt;/span&gt;&amp;nbsp;&lt;br&gt;+ &lt;span class=&quot;hljs-title function_ invoke__&quot;&gt;getNota&lt;/span&gt;(): &lt;span class=&quot;hljs-keyword&quot;&gt;float&lt;/span&gt;&amp;nbsp;&lt;br&gt;+ &lt;span class=&quot;hljs-title function_ invoke__&quot;&gt;setNota&lt;/span&gt;(&lt;span class=&quot;hljs-attr&quot;&gt;nota&lt;/span&gt;: &lt;span class=&quot;hljs-keyword&quot;&gt;float&lt;/span&gt;): &lt;span class=&quot;hljs-keyword&quot;&gt;void&lt;/span&gt;&amp;nbsp;&lt;br&gt;+ &lt;span class=&quot;hljs-title function_ invoke__&quot;&gt;calcularNota&lt;/span&gt;(): &lt;span class=&quot;hljs-keyword&quot;&gt;double&lt;/span&gt;" style="text;strokeColor=none;fillColor=none;align=left;verticalAlign=top;spacingLeft=4;spacingRight=4;overflow=hidden;rotatable=0;points=[[0,0.5],[1,0.5]];portConstraint=eastwest;whiteSpace=wrap;html=1;" vertex="1" parent="sDDxGcO6GiRr_8JJlsQ9-35">
          <mxGeometry y="98" width="472" height="142" as="geometry" />
        </mxCell>
        <mxCell id="sDDxGcO6GiRr_8JJlsQ9-39" value="&lt;p style=&quot;margin:0px;margin-top:4px;text-align:center;&quot;&gt;&lt;i&gt;&amp;lt;&amp;lt;Interface&amp;gt;&amp;gt;&lt;/i&gt;&lt;br&gt;&lt;b&gt;Avaliacao&lt;/b&gt;&lt;/p&gt;&lt;hr size=&quot;1&quot; style=&quot;border-style:solid;&quot;&gt;&lt;p style=&quot;margin:0px;margin-left:4px;&quot;&gt;+ &lt;span class=&quot;hljs-title function_ invoke__&quot;&gt;calcularNota&lt;/span&gt;(): &lt;span class=&quot;hljs-keyword&quot;&gt;double&lt;/span&gt;&lt;/p&gt;" style="verticalAlign=top;align=left;overflow=fill;html=1;whiteSpace=wrap;" vertex="1" parent="1">
          <mxGeometry x="-330" y="395" width="190" height="70" as="geometry" />
        </mxCell>
        <mxCell id="sDDxGcO6GiRr_8JJlsQ9-40" style="edgeStyle=orthogonalEdgeStyle;rounded=0;orthogonalLoop=1;jettySize=auto;html=1;exitX=0.5;exitY=0;exitDx=0;exitDy=0;entryX=0.472;entryY=1.007;entryDx=0;entryDy=0;entryPerimeter=0;dashed=1;dashPattern=12 12;" edge="1" parent="1" source="sDDxGcO6GiRr_8JJlsQ9-39" target="sDDxGcO6GiRr_8JJlsQ9-38">
          <mxGeometry relative="1" as="geometry" />
        </mxCell>
        <mxCell id="sDDxGcO6GiRr_8JJlsQ9-41" style="edgeStyle=orthogonalEdgeStyle;rounded=0;orthogonalLoop=1;jettySize=auto;html=1;exitX=0.5;exitY=0;exitDx=0;exitDy=0;entryX=0.568;entryY=1.01;entryDx=0;entryDy=0;entryPerimeter=0;dashed=1;dashPattern=8 8;" edge="1" parent="1" source="sDDxGcO6GiRr_8JJlsQ9-39" target="YF1ZqDDAbzUs63sc3VQb-25">
          <mxGeometry relative="1" as="geometry">
            <Array as="points">
              <mxPoint x="-235" y="370" />
              <mxPoint x="-90" y="370" />
              <mxPoint x="-90" y="278" />
              <mxPoint x="126" y="278" />
            </Array>
          </mxGeometry>
        </mxCell>
      </root>
    </mxGraphModel>
  </diagram>
</mxfile>
